<?xml version="1.0" encoding="utf-8" ?><svg xmlns="http://www.w3.org/2000/svg" xmlns:xlink="http://www.w3.org/1999/xlink" width="1024" height="1024" viewBox="0 0 1024 1024"><path fill="white" d="M0 0L1024 0L1024 1024L0 1024L0 0Z"/><path d="M510.825 238.048C660.091 232.069 785.926 348.259 791.844 497.527C797.761 646.795 681.519 772.582 532.248 778.438C383.065 784.29 257.368 668.131 251.454 518.95C245.54 369.769 361.647 244.024 510.825 238.048Z"/><path fill="white" d="M511.472 268.07C644.134 262.454 756.191 365.526 761.656 498.194C767.121 630.862 663.92 742.802 531.246 748.115C398.786 753.419 287.067 650.421 281.611 517.968C276.155 385.514 379.025 273.677 511.472 268.07Z"/><path d="M460.704 382.183C475.544 381.356 482.537 383.888 495.376 391.277C502.38 395.308 509.972 399.339 517.052 403.339L569.381 432.786C585.267 441.518 601.105 450.336 616.895 459.239C630.118 466.586 646.848 473.352 654.427 486.962C660.4 497.69 661.846 511.216 658.496 523.038C656.497 529.86 652.645 535.994 647.369 540.758C640.137 547.372 621.573 556.979 612.41 562.248C598.539 570.225 584.25 578.555 570.285 586.31C541.223 602.56 512.473 620.473 482.835 635.728C479.636 637.374 475.475 638.289 471.945 638.906C449.22 643.075 425.424 627.236 422.92 603.795C421.718 592.54 422.358 579.28 422.383 567.834L422.411 504.924L422.395 448.629C422.376 426.055 419.209 404.51 440.295 389.693C447.251 384.804 452.305 383.19 460.704 382.183Z"/><path fill="white" d="M462.543 412.085C463.864 411.97 467.435 411.673 468.467 412.093C481.73 417.481 499.096 428.163 511.548 435.038C536.565 448.833 561.505 462.769 586.366 476.843C598.507 483.708 610.766 490.622 622.852 497.591C624.977 499.017 627.676 500.568 628.883 502.94C635.713 516.364 623.277 521.654 613.663 527.036C610.55 528.779 607.929 530.291 605.154 531.864L565.538 554.442L506.399 588.083C495.09 594.562 483.804 601.155 472.35 607.338C468.092 609.479 463.394 611.27 459.014 608.463C452.864 604.521 452.101 600.583 452.07 593.81C452.026 584.176 452.11 574.555 452.115 564.928L452.061 508.442C452.04 481.264 451.968 454.083 452.089 426.906C452.124 418.867 455.085 415.094 462.543 412.085Z"/></svg>