<?xml version="1.0" encoding="utf-8" ?><svg xmlns="http://www.w3.org/2000/svg" xmlns:xlink="http://www.w3.org/1999/xlink" width="1024" height="1024" viewBox="0 0 1024 1024"><path fill="white" d="M0 0L1024 0L1024 1024L0 1024L0 0Z"/><path d="M462.86 396.185C483.091 394.682 508.427 413.289 525.809 423.565L565.737 446.746L599.684 466.483C606.211 470.281 612.575 473.915 618.978 478.039C639.626 491.26 641.761 524.433 623.554 540.542C616.038 547.192 605.21 552.663 596.409 557.8L555.745 581.509C532.511 595.509 507.785 609.968 484.3 623.196C462.477 635.489 429.136 618.778 427.466 593.181C426.847 583.698 427.015 573.584 427.028 563.783L427.054 511.784L427.008 458.938C427.004 449.657 426.471 438.75 427.552 429.691C429.785 410.975 444.486 398.372 462.86 396.185Z"/><path fill="white" d="M465.792 424.601C468.302 424.473 470.709 425.052 472.915 426.272C480.406 430.411 487.802 434.724 495.218 438.996L538.98 464.27L579.589 487.84C586.319 491.772 600.565 499.067 605.684 504.78C609.99 509.586 607.532 517.487 601.923 521.03C596.463 524.48 590.285 528.131 584.292 531.633L549.69 551.837L496.368 582.813C487.627 587.927 479.036 593.419 469.956 597.851C465.26 600.144 455.701 595.629 455.475 590.983C454.486 570.589 455.011 549.737 455.016 529.257L455.021 466.552C455.02 456.963 454.932 447.363 454.953 437.777C454.971 429.794 458.697 426.646 465.792 424.601Z"/><path d="M262.28 454.57C271.998 453.806 274.995 456.976 281.095 463.848C295.707 480.309 311.245 496.192 325.24 513.157C326.562 514.76 326.922 516.907 327.027 518.942C327.231 522.84 325.828 526.651 323.146 529.487C311.239 542.275 299.139 527.752 291.484 518.963C287.741 514.666 283.482 510.329 279.473 506.279C278.678 539.822 283.481 571.308 296.094 602.579C319.24 659.936 364.313 705.686 421.317 729.685C515.6 769.37 624.737 743.1 690.633 664.857C699.597 654.176 707.264 643.289 714.427 631.345C718.873 623.93 723.212 610.109 731.297 607.082C735.254 605.621 739.646 605.904 743.383 607.861C757.795 615.25 748.67 629.072 743.483 638.748C732.03 660.366 714.077 683.779 696.771 700.933C647.175 750.164 579.983 777.565 510.103 777.059C440.344 776.609 373.65 748.335 324.823 698.512C285.243 658.649 259.922 606.841 252.784 551.121C250.89 536.295 250.503 521.22 250.639 506.288C244.492 512.692 230.049 530.694 223.181 533.535C219.852 534.937 216.096 534.929 212.773 533.513C206.276 530.808 201.241 522.01 204.546 514.627C206.266 511.643 208.884 508.649 211.201 506.156C225.891 490.355 239.947 473.916 254.942 458.417C256.844 456.451 259.755 455.401 262.28 454.57Z"/><path d="M497.144 246.709C502.479 246.2 511.713 246.302 517.12 246.364C586.097 247.594 651.795 276.028 699.905 325.474C740.021 366.326 765.345 419.406 771.859 476.29C773.461 490.517 773.475 502.667 773.291 516.932C782.887 507.022 799.962 479.826 814.908 492.314C817.939 494.891 819.823 498.565 820.148 502.529C820.358 505.09 819.923 508.464 818.232 510.501C804.454 527.102 789.036 542.491 774.533 558.486C770.067 563.412 765.727 568.89 758.485 568.993C754.937 569.043 751.522 567.534 748.956 565.027C741.663 557.205 734.537 549.074 727.257 541.248L710.177 523.093C706.484 519.172 702.111 514.823 699.098 510.449C694.151 503.293 698.412 493.07 706.181 489.925C717.772 485.234 725.871 497.232 732.799 504.413C736.791 508.551 740.709 512.92 744.507 517.177C744.661 473.538 740.218 446.044 721.731 405.849C705.721 374.015 685.317 347.871 657.127 325.746C608.203 286.915 545.744 269.336 483.748 276.951C420.596 284.64 363.305 317.735 325.094 368.599C318.803 377.016 313.034 385.81 307.819 394.932C303.123 403.169 299.281 416.33 288.486 417.067C284.306 417.319 280.202 415.872 277.104 413.055C274.438 410.633 272.636 407.352 272.499 403.711C271.991 390.279 304.276 347.414 314.397 335.95C360.904 282.931 426.736 250.783 497.144 246.709Z"/></svg>