<svg width="50" height="17" viewBox="0 0 50 17" fill="none" xmlns="http://www.w3.org/2000/svg">
<path d="M38.5625 16.6805V0.388672H41.1379V11.1407L46.5848 4.88373H49.7071L44.8071 10.2459L49.7527 16.6805H46.6759L42.6702 11.1516L41.1379 11.1407V16.6805H38.5625Z" fill="black"/>
<path d="M30.7543 16.9551C26.9255 16.9551 24.8516 14.2398 24.8516 10.7715C24.8516 7.28039 26.9255 4.58789 30.7543 4.58789C34.6059 4.58789 36.657 7.28039 36.657 10.7715C36.657 14.2398 34.6059 16.9551 30.7543 16.9551ZM27.5409 10.7715C27.5409 13.464 28.9994 14.8102 30.7543 14.8102C32.532 14.8102 33.9678 13.464 33.9678 10.7715C33.9678 8.07899 32.532 6.70989 30.7543 6.70989C28.9994 6.70989 27.5409 8.07899 27.5409 10.7715Z" fill="black"/>
<path d="M17.6797 16.6796V6.75391L19.8448 4.88281H24.4485V7.07331H20.2551V16.6796H17.6797Z" fill="black"/>
<path d="M7.8353 16.9811C2.9267 16.9811 0 13.4169 0 8.55665C0 3.65085 3.0312 0 7.9311 0C11.7599 0 14.5632 1.96232 15.2241 5.61315H12.2841C11.8511 3.53675 10.119 2.37305 7.9311 2.37305C4.3986 2.37305 2.8488 5.43065 2.8488 8.55665C2.8488 11.6827 4.3986 14.7174 7.9311 14.7174C11.3041 14.7174 12.7855 12.2759 12.8994 10.2451H7.8172V7.88255H15.4976L15.485 9.11775C15.485 13.708 13.6144 16.9811 7.8353 16.9811Z" fill="black"/>
</svg>
